# xmcd
#
# Track frame offsets:
#       150
#       16172
#       31040
#       46730
#       60060
#       73615
#       91065
#       105990
#       118805
#       131730
#       142150
#       158807
#       174850
#       193575
#       222610
#       243625
#       269660
#       284037
#
# Disc length: 4065 seconds
#
# Revision: 1
# Processed by: cddbd v1.4PL0 Copyright (c) Steve Scherf et al.
# Submitted via: MusiCat 1.1
#
DISCID=020fdf12
DTITLE=Louisiana Red - Midnight Rambler
DYEAR=1900
DGENRE=
TTITLE0=Midnight Rambler
TTITLE1=Turkey Killer
TTITLE2=Look at the children Run
TTITLE3=First Degree
TTITLE4=Sweet blood call
TTITLE5=King Bee
TTITLE6=Goin' home
TTITLE7=Back to Georgia
TTITLE8=Too poor to die
TTITLE9=30 Dirty Women
TTITLE10=Out Walkin'
TTITLE11=The Whole World
TTITLE12=I've been down so long
TTITLE13=Walk all over Georgia
TTITLE14=Recreation BLues
TTITLE15=Standing at your door
TTITLE16=Had a date with Barbara
TTITLE17=Death of Elise
EXTD=0\n\n\nsubmitted by Stamppot
EXTT0=
EXTT1=
EXTT2=
EXTT3=
EXTT4=
EXTT5=
EXTT6=
EXTT7=
EXTT8=
EXTT9=
EXTT10=
EXTT11=
EXTT12=
EXTT13=
EXTT14=
EXTT15=
EXTT16=
EXTT17=
PLAYORDER=
